<svg xmlns="http://www.w3.org/2000/svg" viewBox="0 0 27 166" width="27" height="166">
	<defs>
		<clipPath clipPathUnits="userSpaceOnUse" id="cp1">
			<path d="M26,14.5c0,6.88 -5.4,12.5 -12,12.5c-6.6,0 -12,-5.62 -12,-12.5c0,-6.87 5.4,-12.5 12,-12.5c6.6,0 12,5.62 12,12.5zM4,14.5c0,5.77 4.5,10.5 10,10.5c5.5,0 10,-4.73 10,-10.5c0,-5.77 -4.5,-10.5 -10,-10.5c-5.5,0 -10,4.72 -10,10.5z" />
		</clipPath>
		<clipPath clipPathUnits="userSpaceOnUse" id="cp2">
			<path d="M26,60.5c0,6.88 -5.4,12.5 -12,12.5c-6.6,0 -12,-5.62 -12,-12.5c0,-6.87 5.4,-12.5 12,-12.5c6.6,0 12,5.62 12,12.5zM4,60.5c0,5.77 4.5,10.5 10,10.5c5.5,0 10,-4.73 10,-10.5c0,-5.77 -4.5,-10.5 -10,-10.5c-5.5,0 -10,4.72 -10,10.5z" />
		</clipPath>
		<clipPath clipPathUnits="userSpaceOnUse" id="cp3">
			<path d="M26,106.5c0,6.88 -5.4,12.5 -12,12.5c-6.6,0 -12,-5.62 -12,-12.5c0,-6.87 5.4,-12.5 12,-12.5c6.6,0 12,5.62 12,12.5zM4,106.5c0,5.77 4.5,10.5 10,10.5c5.5,0 10,-4.73 10,-10.5c0,-5.77 -4.5,-10.5 -10,-10.5c-5.5,0 -10,4.72 -10,10.5z" />
		</clipPath>
		<clipPath clipPathUnits="userSpaceOnUse" id="cp4">
			<path d="M26,152.5c0,6.87 -5.4,12.5 -12,12.5c-6.6,0 -12,-5.62 -12,-12.5c0,-6.88 5.4,-12.5 12,-12.5c6.6,0 12,5.62 12,12.5zM4,152.5c0,5.77 4.5,10.5 10,10.5c5.5,0 10,-4.72 10,-10.5c0,-5.78 -4.5,-10.5 -10,-10.5c-5.5,0 -10,4.72 -10,10.5z" />
		</clipPath>
	</defs>
	<style>
		tspan { white-space:pre }
		.shp0 { fill: none;stroke: #3d70b2;stroke-width: 2 } 
		.shp1 { fill: #3d70b2 } 
	</style>
	<g id="Folder 19">
		<path id="Layer" class="shp0" d="M14,26l0,22.14" />
		<g id="Clip-Path" clip-path="url(#cp1)">
			<path id="Layer" class="shp1" d="M27,14.5c0,-7.39 -5.81,-13.5 -13,-13.5v2c6.01,0 11,5.14 11,11.5zM14,28c7.19,0 13,-6.11 13,-13.5h-2c0,6.36 -4.99,11.5 -11,11.5zM1,14.5c0,7.39 5.81,13.5 13,13.5v-2c-6.01,0 -11,-5.14 -11,-11.5zM14,1c-7.19,0 -13,6.11 -13,13.5h2c0,-6.36 4.99,-11.5 11,-11.5zM5,14.5c0,-5.27 4.1,-9.5 9,-9.5v-2c-6.1,0 -11,5.22 -11,11.5zM14,24c-4.9,0 -9,-4.23 -9,-9.5h-2c0,6.28 4.9,11.5 11,11.5zM23,14.5c0,5.27 -4.1,9.5 -9,9.5v2c6.1,0 11,-5.22 11,-11.5zM14,5c4.9,0 9,4.23 9,9.5h2c0,-6.28 -4.9,-11.5 -11,-11.5z" />
		</g>
		<path id="Layer" class="shp1" d="M12.17,16.82l-2.71,-2.95l-1.46,1.59l4.17,4.55l7.83,-8.41l-1.46,-1.59z" />
	</g>
	<g id="Folder 19">
		<path id="Layer" class="shp0" d="M14,72l0,22.14" />
		<g id="Clip-Path" clip-path="url(#cp2)">
			<path id="Layer" class="shp1" d="M27,60.5c0,-7.39 -5.81,-13.5 -13,-13.5v2c6.01,0 11,5.14 11,11.5zM14,74c7.19,0 13,-6.11 13,-13.5h-2c0,6.36 -4.99,11.5 -11,11.5zM1,60.5c0,7.39 5.81,13.5 13,13.5v-2c-6.01,0 -11,-5.14 -11,-11.5zM14,47c-7.19,0 -13,6.11 -13,13.5h2c0,-6.36 4.99,-11.5 11,-11.5zM5,60.5c0,-5.27 4.1,-9.5 9,-9.5v-2c-6.1,0 -11,5.22 -11,11.5zM14,70c-4.9,0 -9,-4.23 -9,-9.5h-2c0,6.28 4.9,11.5 11,11.5zM23,60.5c0,5.27 -4.1,9.5 -9,9.5v2c6.1,0 11,-5.22 11,-11.5zM14,51c4.9,0 9,4.23 9,9.5h2c0,-6.28 -4.9,-11.5 -11,-11.5z" />
		</g>
		<path id="Layer" class="shp1" d="M12.17,62.82l-2.71,-2.95l-1.46,1.59l4.17,4.55l7.83,-8.41l-1.46,-1.59z" />
	</g>
	<g id="Folder 19">
		<path id="Layer" class="shp0" d="M14,140.14l0,-22.14" />
		<g id="Clip-Path" clip-path="url(#cp3)">
			<path id="Layer" class="shp1" d="M27,106.5c0,-7.39 -5.81,-13.5 -13,-13.5v2c6.01,0 11,5.14 11,11.5zM14,120c7.19,0 13,-6.11 13,-13.5h-2c0,6.36 -4.99,11.5 -11,11.5zM1,106.5c0,7.39 5.81,13.5 13,13.5v-2c-6.01,0 -11,-5.14 -11,-11.5zM14,93c-7.19,0 -13,6.11 -13,13.5h2c0,-6.36 4.99,-11.5 11,-11.5zM5,106.5c0,-5.27 4.1,-9.5 9,-9.5v-2c-6.1,0 -11,5.22 -11,11.5zM14,116c-4.9,0 -9,-4.23 -9,-9.5h-2c0,6.28 4.9,11.5 11,11.5zM23,106.5c0,5.27 -4.1,9.5 -9,9.5v2c6.1,0 11,-5.22 11,-11.5zM14,97c4.9,0 9,4.23 9,9.5h2c0,-6.28 -4.9,-11.5 -11,-11.5z" />
		</g>
		<path id="Layer" class="shp1" d="M12.17,108.82l-2.71,-2.95l-1.46,1.59l4.17,4.55l7.83,-8.41l-1.46,-1.59z" />
	</g>
	<g id="Clip-Path" clip-path="url(#cp4)">
		<path id="Layer" class="shp1" d="M27,152.5c0,-7.39 -5.81,-13.5 -13,-13.5v2c6.01,0 11,5.14 11,11.5zM14,166c7.19,0 13,-6.11 13,-13.5h-2c0,6.36 -4.99,11.5 -11,11.5zM1,152.5c0,7.39 5.81,13.5 13,13.5v-2c-6.01,0 -11,-5.14 -11,-11.5zM14,139c-7.19,0 -13,6.11 -13,13.5h2c0,-6.36 4.99,-11.5 11,-11.5zM5,152.5c0,-5.27 4.1,-9.5 9,-9.5v-2c-6.1,0 -11,5.22 -11,11.5zM14,162c-4.9,0 -9,-4.23 -9,-9.5h-2c0,6.28 4.9,11.5 11,11.5zM23,152.5c0,5.27 -4.1,9.5 -9,9.5v2c6.1,0 11,-5.22 11,-11.5zM14,143c4.9,0 9,4.23 9,9.5h2c0,-6.28 -4.9,-11.5 -11,-11.5z" />
	</g>
	<path id="Layer" class="shp1" d="M14,159c3.31,0 6,-2.91 6,-6.5c0,-3.59 -2.69,-6.5 -6,-6.5c-3.31,0 -6,2.91 -6,6.5c0,3.59 2.69,6.5 6,6.5z" />
</svg>